<?xml version="1.0" encoding="utf-8"?>
<!-- Generator: Adobe Illustrator 19.0.0, SVG Export Plug-In . SVG Version: 6.00 Build 0)  -->
<svg version="1.1" id="Layer_1" xmlns="http://www.w3.org/2000/svg" xmlns:xlink="http://www.w3.org/1999/xlink" x="0px" y="0px"
	 viewBox="2 7 20 20" style="enable-background:new 2 7 20 20;" xml:space="preserve">
<style type="text/css">
	.st0{fill:#FFFFFF;}
</style>
<title>11</title>
<path class="st0" d="M19.1,11.3c-3.9-3.9-10.2-3.9-14.1,0S1,21.5,4.9,25.4c0.2,0.2,0.5,0.2,0.7,0c0,0,0,0,0.1-0.1l0,0l2-2l-0.8-0.6
	l-1.7,1.7c-1.4-1.5-2.2-3.5-2.3-5.6h2.5v-1H2.9c0.1-2.1,0.9-4,2.3-5.6l1.7,1.7l0.7-0.7l-1.7-1.5c1.5-1.4,3.5-2.2,5.6-2.3v2.5h1V9.4
	c2.1,0.1,4,0.9,5.6,2.3l-1.7,1.7l0.7,0.7l1.7-1.7c1.4,1.5,2.2,3.5,2.3,5.6h-2.5v1H21c-0.1,2.1-0.9,4-2.3,5.6L17,22.7l-0.7,0.7l2,2.1
	l0,0l0,0c0.2,0.2,0.5,0.2,0.7,0l0,0C23,21.6,23,15.2,19.1,11.3L19.1,11.3L19.1,11.3z"/>
<path class="st0" d="M11.5,13.6v3.2c-1.1,0.3-1.8,1.4-1.5,2.5c0.3,1.1,1.4,1.8,2.5,1.5s1.8-1.4,1.5-2.5c-0.2-0.8-0.8-1.3-1.5-1.5
	v-3.2H11.5z M13.1,18.9c0,0.6-0.5,1.1-1.1,1.1c-0.6,0-1.1-0.5-1.1-1.1c0-0.6,0.5-1.1,1.1-1.1l0,0C12.6,17.8,13.1,18.3,13.1,18.9
	L13.1,18.9z"/>
</svg>
